<?xml version="1.0" encoding="UTF-8" standalone="no"?><!DOCTYPE svg PUBLIC "-//W3C//DTD SVG 1.1//EN" "http://www.w3.org/Graphics/SVG/1.1/DTD/svg11.dtd"><svg width="100%" height="100%" viewBox="0 0 16 16" version="1.1" xmlns="http://www.w3.org/2000/svg" xmlns:xlink="http://www.w3.org/1999/xlink" xml:space="preserve" style="fill-rule:evenodd;clip-rule:evenodd;stroke-linejoin:round;stroke-miterlimit:2;"><rect x="0" y="0" width="16" height="16" style="fill:#97caff;"/><path d="M7.617,2.088c-0.717,0.066 -1.31,0.23 -1.933,0.535c-1.108,0.543 -1.949,1.384 -2.484,2.486c-0.349,0.719 -0.51,1.359 -0.541,2.167c-0.044,1.122 0.263,2.217 0.893,3.163c0.218,0.331 0.567,0.748 0.801,0.959l0.157,0.14l-0.101,0.108c-0.117,0.129 -0.206,0.309 -0.227,0.464l-0.016,0.11l-0.192,0c-0.211,0 -0.298,0.038 -0.396,0.171c-0.047,0.063 -0.05,0.094 -0.05,0.752l0,0.687l0.064,0.082c0.131,0.173 -0.256,0.159 4.447,0.159c4.703,0 4.316,0.014 4.447,-0.159l0.063,-0.082l0,-0.687c0,-0.658 -0.002,-0.689 -0.049,-0.752c-0.098,-0.133 -0.185,-0.171 -0.396,-0.171l-0.192,0l-0.016,-0.112c-0.021,-0.153 -0.11,-0.333 -0.228,-0.462l-0.1,-0.108l0.157,-0.14c0.234,-0.211 0.583,-0.628 0.801,-0.959c0.834,-1.256 1.099,-2.765 0.747,-4.253c-0.089,-0.372 -0.201,-0.679 -0.396,-1.077c-0.534,-1.102 -1.375,-1.943 -2.483,-2.486c-0.52,-0.253 -1.001,-0.406 -1.558,-0.49c-0.239,-0.035 -1.006,-0.063 -1.219,-0.045Zm0.98,0.387c0.543,0.059 1.129,0.23 1.633,0.476c0.527,0.26 0.909,0.534 1.349,0.972c0.439,0.441 0.713,0.822 0.973,1.35c0.487,1 0.625,2.141 0.393,3.25c-0.22,1.045 -0.834,2.076 -1.652,2.767l-0.131,0.11l-0.356,-0c-0.194,-0 -0.354,-0.002 -0.354,-0.007c0,-0.002 -4.827,-0.002 -4.827,-0c0,0.005 -0.159,0.007 -0.353,0.007l-0.356,-0l-0.132,-0.11c-0.817,-0.691 -1.431,-1.722 -1.652,-2.767c-0.227,-1.085 -0.096,-2.226 0.368,-3.199c0.406,-0.846 1.043,-1.567 1.856,-2.102c0.56,-0.365 1.404,-0.667 2.088,-0.745c0.265,-0.03 0.885,-0.032 1.153,-0.002Zm-2.571,8.925l4.026,-0l-4.026,-0Zm5.155,0.375c0.185,0.051 0.347,0.229 0.349,0.379l0,0.066l-6.982,0l-0,-0.066c-0,-0.079 0.086,-0.232 0.166,-0.29c0.152,-0.115 0.04,-0.11 3.313,-0.113c1.987,0 3.1,0.01 3.154,0.024Zm1.005,0.796l0,1.125l-8.294,0l-0,-1.125l8.294,0Z" style="fill:#fff;fill-rule:nonzero;"/><path d="M10.082,4.218l-0.376,-0.344c-0.063,-0.056 -0.066,-0.153 -0.01,-0.214c0.056,-0.062 0.153,-0.066 0.214,-0.01l0.172,0.157l-0,-0.22c-0,-0.085 0.068,-0.153 0.152,-0.153c0.085,0 0.153,0.068 0.153,0.153l-0,0.234l0.202,-0.184c0.062,-0.057 0.158,-0.053 0.214,0.009c0.056,0.062 0.052,0.158 -0.01,0.214l-0.406,0.372l0,0.373l0.37,-0l0.362,-0.397c0.057,-0.062 0.153,-0.066 0.214,-0.009c0.062,0.056 0.066,0.152 0.01,0.214l-0.175,0.192l0.237,-0c0.084,-0 0.152,0.068 0.152,0.152c0,0.084 -0.068,0.153 -0.152,0.153l-0.215,-0l0.166,0.181c0.057,0.062 0.053,0.158 -0.009,0.215c-0.062,0.056 -0.158,0.052 -0.214,-0.01l-0.355,-0.386l-0.391,-0l-0,0.378l0.406,0.372c0.062,0.056 0.066,0.152 0.01,0.214c-0.057,0.062 -0.153,0.066 -0.214,0.01l-0.202,-0.184l0,0.228c0,0.085 -0.068,0.153 -0.152,0.153c-0.085,-0 -0.153,-0.068 -0.153,-0.153l0,-0.214l-0.171,0.156c-0.062,0.057 -0.159,0.053 -0.215,-0.009c-0.056,-0.062 -0.052,-0.158 0.01,-0.214l0.376,-0.344l0,-0.393l-0.376,-0l-0.355,0.386c-0.056,0.062 -0.152,0.066 -0.214,0.01c-0.062,-0.057 -0.066,-0.153 -0.009,-0.215l0.166,-0.181l-0.231,-0c-0.084,-0 -0.152,-0.069 -0.152,-0.153c-0,-0.084 0.068,-0.152 0.152,-0.152l0.253,-0l-0.175,-0.192c-0.056,-0.062 -0.052,-0.158 0.009,-0.214c0.062,-0.057 0.159,-0.053 0.215,0.009l0.362,0.397l0.355,-0l-0,-0.387l0,-0Z" style="fill:#fff;fill-rule:nonzero;"/><path d="M5.753,5.735l-0.376,-0.344c-0.062,-0.056 -0.066,-0.152 -0.01,-0.214c0.057,-0.062 0.153,-0.066 0.215,-0.009l0.171,0.156l0,-0.22c0,-0.084 0.068,-0.152 0.153,-0.152c0.084,-0 0.152,0.068 0.152,0.152l0,0.234l0.202,-0.184c0.062,-0.056 0.158,-0.052 0.214,0.01c0.057,0.062 0.053,0.158 -0.009,0.214l-0.407,0.372l0,0.372l0.37,0l0.363,-0.396c0.056,-0.062 0.152,-0.066 0.214,-0.01c0.062,0.057 0.066,0.153 0.009,0.215l-0.174,0.191l0.236,0c0.085,0 0.153,0.068 0.153,0.153c-0,0.084 -0.068,0.152 -0.153,0.152l-0.215,0l0.167,0.182c0.056,0.062 0.052,0.158 -0.01,0.214c-0.062,0.057 -0.158,0.052 -0.214,-0.009l-0.354,-0.387l-0.392,0l0,0.379l0.407,0.371c0.062,0.057 0.066,0.153 0.009,0.215c-0.056,0.062 -0.152,0.066 -0.214,0.009l-0.202,-0.184l0,0.229c0,0.084 -0.068,0.152 -0.152,0.152c-0.084,0 -0.153,-0.068 -0.153,-0.152l0,-0.215l-0.171,0.157c-0.062,0.056 -0.158,0.052 -0.214,-0.01c-0.057,-0.062 -0.053,-0.158 0.009,-0.214l0.377,-0.344l-0,-0.393l-0.377,0l-0.354,0.387c-0.057,0.062 -0.153,0.066 -0.214,0.009c-0.062,-0.056 -0.066,-0.152 -0.01,-0.214l0.167,-0.182l-0.231,0c-0.085,0 -0.153,-0.068 -0.153,-0.152c0,-0.085 0.068,-0.153 0.153,-0.153l0.252,0l-0.175,-0.191c-0.056,-0.062 -0.052,-0.159 0.01,-0.215c0.062,-0.056 0.158,-0.052 0.214,0.01l0.362,0.396l0.355,0l0,-0.387l0,0Z" style="fill:#fff;fill-rule:nonzero;"/><path d="M9.241,7.922l-0.377,-0.344c-0.062,-0.057 -0.066,-0.153 -0.009,-0.215c0.056,-0.062 0.152,-0.065 0.214,-0.009l0.171,0.156l0,-0.22c0,-0.084 0.069,-0.152 0.153,-0.152c0.084,-0 0.152,0.068 0.152,0.152l0,0.235l0.202,-0.185c0.062,-0.056 0.158,-0.052 0.215,0.01c0.056,0.062 0.052,0.158 -0.01,0.214l-0.406,0.372l-0,0.372l0.37,0l0.362,-0.396c0.056,-0.062 0.152,-0.066 0.214,-0.009c0.062,0.056 0.066,0.152 0.01,0.214l-0.175,0.191l0.237,0c0.084,0 0.152,0.069 0.152,0.153c0,0.084 -0.068,0.152 -0.152,0.152l-0.216,0l0.167,0.182c0.057,0.062 0.052,0.158 -0.009,0.214c-0.062,0.057 -0.158,0.053 -0.215,-0.009l-0.354,-0.387l-0.392,0l0,0.379l0.407,0.372c0.062,0.056 0.066,0.152 0.01,0.214c-0.057,0.062 -0.153,0.066 -0.215,0.01l-0.201,-0.185l-0,0.229c-0,0.084 -0.069,0.153 -0.153,0.153c-0.084,-0 -0.152,-0.069 -0.152,-0.153l-0,-0.214l-0.172,0.156c-0.062,0.057 -0.158,0.053 -0.214,-0.009c-0.057,-0.062 -0.052,-0.158 0.009,-0.215l0.377,-0.343l-0,-0.394l-0.377,0l-0.354,0.387c-0.056,0.062 -0.152,0.066 -0.214,0.009c-0.062,-0.056 -0.066,-0.152 -0.01,-0.214l0.167,-0.182l-0.231,0c-0.084,0 -0.153,-0.068 -0.153,-0.152c0,-0.084 0.069,-0.153 0.153,-0.153l0.252,0l-0.174,-0.191c-0.057,-0.062 -0.053,-0.158 0.009,-0.214c0.062,-0.057 0.158,-0.053 0.214,0.009l0.362,0.396l0.355,0l0,-0.386l0.001,-0Z" style="fill:#fff;fill-rule:nonzero;"/></svg>